<?xml version="1.0" standalone="no"?>
<!DOCTYPE svg PUBLIC "-//W3C//DTD SVG 20010904//EN"
 "http://www.w3.org/TR/2001/REC-SVG-20010904/DTD/svg10.dtd">
<svg version="1.0" xmlns="http://www.w3.org/2000/svg"
 width="1280.000000pt" height="926.000000pt" viewBox="0 0 1280.000000 926.000000"
 preserveAspectRatio="xMidYMid meet">
<metadata>
Created by potrace 1.15, written by Peter Selinger 2001-2017
</metadata>
<g transform="translate(0.000000,926.000000) scale(0.100000,-0.100000)"
fill="#ffffff" stroke="none">
<path d="M0 8795 l0 -465 443 0 444 0 135 -147 c701 -766 1243 -1599 1646
-2533 575 -1335 799 -2779 661 -4275 -24 -268 -49 -454 -95 -732 -38 -233 -37
-264 11 -321 54 -65 151 -79 300 -43 144 35 628 212 999 365 l159 66 138 -75
c550 -300 1053 -512 1446 -609 l113 -28 92 22 c407 99 887 300 1471 617 l137
75 133 -55 c346 -144 568 -229 812 -313 313 -108 446 -111 517 -12 33 48 31
163 -10 403 -120 717 -152 1566 -86 2285 101 1100 397 2131 894 3115 385 762
837 1416 1412 2043 l140 152 444 0 444 0 0 465 0 465 -6400 0 -6400 0 0 -465z
m2525 -485 c7 -21 -2 -74 -41 -237 -34 -142 -86 -290 -146 -411 -53 -108 -146
-244 -163 -239 -5 2 -37 41 -69 88 -158 224 -419 557 -576 736 -33 38 -60 71
-60 76 0 4 236 7 524 7 516 0 525 0 531 -20z m1835 13 c0 -22 -75 -287 -114
-405 -84 -251 -208 -541 -321 -748 -73 -134 -189 -329 -195 -330 -6 0 -176
285 -271 455 -83 149 -265 510 -334 665 -48 105 -155 359 -155 366 0 2 313 4
695 4 382 0 695 -3 695 -7z m1823 -38 c13 -88 -65 -431 -154 -683 -104 -294
-233 -551 -422 -840 l-80 -123 -63 106 c-206 343 -402 764 -538 1155 -51 144
-126 394 -126 417 0 11 117 13 689 13 l688 0 6 -45z m1817 32 c0 -8 -18 -74
-39 -148 -146 -495 -367 -997 -638 -1447 l-50 -83 -80 123 c-248 380 -405 727
-508 1120 -48 185 -76 349 -68 403 l6 45 688 0 c572 0 689 -2 689 -13z m1830
8 c0 -2 -32 -79 -71 -171 -91 -215 -204 -454 -320 -674 -120 -230 -357 -640
-369 -640 -11 0 -178 293 -255 446 -84 167 -199 443 -259 624 -32 97 -116 394
-116 412 0 4 313 8 695 8 382 0 695 -2 695 -5z m1500 -2 c0 -5 -30 -42 -66
-83 -152 -173 -395 -482 -543 -692 -45 -65 -86 -120 -90 -122 -18 -11 -114
119 -169 229 -64 130 -136 354 -177 558 -27 130 -85 117 521 117 288 0 524 -3
524 -7z m-1242 -859 c58 -115 151 -250 232 -337 l71 -75 -57 -94 c-151 -249
-336 -593 -455 -848 -35 -74 -65 -137 -66 -140 -9 -11 -377 373 -462 482 -12
16 -4 33 66 145 184 296 334 563 486 868 l99 199 23 -59 c12 -33 40 -96 63
-141z m-7223 64 c128 -266 335 -637 518 -931 l79 -127 -58 -72 c-68 -83 -402
-428 -415 -428 -5 0 -9 5 -9 10 0 17 -230 480 -315 633 -42 76 -116 206 -165
289 l-90 150 70 75 c113 121 220 292 290 466 13 31 27 57 30 57 3 0 33 -55 65
-122z m1773 -58 c138 -349 351 -767 560 -1097 l51 -81 -113 -124 c-167 -182
-536 -515 -557 -503 -27 17 -357 445 -523 678 l-77 109 90 137 c121 186 217
354 310 546 65 132 167 368 195 449 4 10 8 17 10 15 2 -2 26 -60 54 -129z
m3617 40 c113 -297 277 -615 477 -922 l89 -137 -102 -143 c-163 -228 -472
-626 -498 -643 -21 -12 -391 322 -562 508 l-109 118 52 82 c210 331 473 853
588 1165 12 35 26 60 30 55 3 -4 19 -42 35 -83z m-1810 -232 c106 -275 315
-647 513 -917 34 -47 62 -89 62 -93 0 -31 -361 -472 -539 -658 l-81 -85 -81
85 c-146 152 -321 361 -479 569 -74 98 -80 68 53 255 173 245 369 602 462 843
22 57 42 103 45 103 3 0 23 -46 45 -102z m-2722 -1190 c8 -21 305 -415 416
-552 56 -69 100 -130 97 -135 -19 -30 -460 -304 -701 -434 l-140 -76 -56 172
c-54 166 -115 336 -157 443 l-21 52 153 141 c85 77 207 199 272 271 65 71 121
130 125 130 4 0 9 -6 12 -12z m5491 -118 c65 -72 187 -194 272 -271 l153 -141
-21 -52 c-42 -107 -103 -277 -157 -443 l-56 -172 -140 76 c-241 131 -682 403
-700 433 -3 5 48 76 113 157 111 138 362 470 393 521 8 12 16 22 20 22 3 0 58
-59 123 -130z m-3682 -82 c173 -219 250 -312 353 -426 66 -73 140 -156 165
-184 l45 -51 -60 -54 c-150 -135 -552 -453 -573 -453 -11 0 -450 444 -540 547
l-62 71 132 113 c73 62 214 194 313 294 99 100 183 182 187 183 4 1 22 -17 40
-40z m2281 -442 l127 -108 -62 -71 c-87 -99 -529 -547 -540 -547 -27 0 -597
458 -624 501 -6 11 6 26 188 226 109 120 239 276 351 422 l48 63 192 -189
c106 -103 249 -237 320 -297z m-3162 -506 c68 -74 197 -210 287 -302 162 -165
163 -167 140 -181 -288 -182 -578 -339 -928 -502 l-175 -82 -72 65 c-39 35
-133 129 -209 208 l-136 145 -24 92 c-13 51 -24 93 -24 94 0 1 65 36 145 77
256 135 529 299 765 460 52 36 98 64 101 63 4 -1 62 -63 130 -137z m3762 52
c261 -175 476 -303 740 -442 106 -56 137 -76 133 -89 -3 -9 -14 -54 -26 -101
l-20 -85 -203 -203 -203 -203 -129 59 c-326 149 -689 344 -983 529 -23 14 -20
17 159 201 100 103 230 240 288 304 58 65 107 118 109 118 1 0 62 -40 135 -88z
m-1898 -158 c123 -108 310 -260 428 -349 43 -32 76 -61 75 -65 -4 -11 -356
-312 -496 -424 l-122 -98 -123 98 c-144 117 -491 413 -495 424 -1 4 32 33 75
65 118 89 305 241 428 349 61 53 112 96 115 96 3 0 55 -43 115 -96z m-945
-791 c80 -71 221 -191 313 -267 93 -76 164 -142 160 -147 -65 -61 -958 -650
-1004 -662 -21 -6 -716 562 -726 592 -1 3 64 38 145 76 280 134 605 314 837
463 61 39 115 71 120 71 6 1 76 -56 155 -126z m1931 56 c246 -155 479 -285
789 -439 l205 -102 -50 -45 c-114 -102 -351 -298 -508 -422 l-167 -132 -166
102 c-199 123 -504 325 -707 469 l-148 105 29 25 c15 14 78 65 138 115 127
105 302 255 393 337 35 32 68 58 72 58 4 0 59 -32 120 -71z m-3517 -812 c130
-119 353 -308 516 -438 l140 -112 -28 -17 c-93 -56 -799 -420 -815 -420 -2 0
-7 87 -10 193 -8 229 -22 450 -42 646 -8 79 -15 152 -15 161 0 13 19 26 63 43
34 14 70 26 81 26 10 1 59 -36 110 -82z m2569 -28 c159 -116 623 -428 764
-514 45 -27 82 -52 82 -55 0 -15 -650 -440 -960 -628 l-36 -22 -189 116 c-208
128 -427 270 -662 431 l-153 105 154 98 c215 136 546 360 707 479 74 55 136
100 138 100 1 1 71 -49 155 -110z m2449 85 c77 -29 74 -20 58 -156 -18 -155
-39 -471 -46 -682 -4 -113 -9 -206 -11 -206 -18 0 -771 390 -816 423 -17 12
-7 23 125 129 156 126 409 342 528 450 41 37 79 68 85 68 5 0 40 -12 77 -26z
m-3628 -1144 c121 -83 307 -206 413 -273 170 -108 191 -124 175 -135 -68 -51
-732 -385 -1069 -538 l-163 -73 -113 68 c-379 229 -837 535 -837 559 1 12 117
75 408 219 224 111 499 253 612 316 l205 115 75 -54 c41 -29 174 -121 294
-204z m2633 139 c109 -61 381 -201 605 -312 297 -147 407 -207 408 -219 0 -20
-419 -303 -742 -500 l-206 -127 -154 70 c-352 162 -1087 533 -1088 550 0 4 60
44 133 89 170 107 570 376 712 479 61 44 115 80 122 81 6 0 100 -50 210 -111z
m-1390 -905 c114 -63 383 -203 598 -310 214 -107 391 -196 393 -198 6 -6 -396
-201 -543 -264 -199 -85 -395 -157 -540 -198 l-125 -36 -125 36 c-244 69 -552
195 -884 359 l-204 101 269 131 c276 135 565 286 804 419 74 42 138 76 142 76
4 0 100 -52 215 -116z m-2680 -254 c89 -58 196 -127 239 -154 l77 -49 -214
-81 c-118 -45 -247 -94 -288 -109 l-73 -27 6 33 c10 57 44 330 51 412 8 89 11
99 28 88 7 -4 85 -55 174 -113z m5143 -105 c12 -116 25 -231 29 -257 4 -27 4
-48 0 -48 -8 0 -239 86 -461 171 -49 18 -88 36 -88 39 0 4 60 44 133 90 72 46
181 117 242 157 60 40 112 69 116 65 3 -4 16 -101 29 -217z"/>
</g>
</svg>
